{"glyphs":{":":{"x_min":0,"x_max":250,"ha":250,"o":"m 125 434 q 163 434 178 399 q 182 388 182 376 q 182 353 165 336 q 146 319 125 319 q 101 319 84 336 q 67 353 67 376 q 67 400 84 417 q 101 434 125 434 z m 125 101 q 163 101 178 66 q 182 55 182 43 q 182 20 165 3 q 146 -14 125 -14 q 101 -14 84 3 q 67 20 67 43 q 67 67 84 84 q 101 101 125 101 z"},"$":{"x_min":0,"x_max":500,"ha":500,"o":"m 127 509 q 127 489 135 472 q 142 456 154 443 q 167 429 184 418 q 201 407 222 397 l 222 607 q 203 603 186 595 q 168 587 156 574 q 143 562 135 545 q 127 529 127 509 z m 369 147 q 369 170 361 188 q 353 207 338 221 q 324 236 306 247 q 289 259 268 269 l 268 40 q 289 44 307 53 q 326 62 339 75 q 353 89 361 107 q 369 125 369 147 z m 371 483 l 351 590 l 350 590 q 349 591 347 591 q 333 598 311 603 q 290 608 268 610 l 268 377 l 304 361 q 336 347 365 331 q 394 314 414 293 q 435 273 446 247 q 458 220 458 185 q 458 142 442 109 q 427 75 402 51 q 376 26 342 11 q 308 -4 268 -10 l 268 -90 q 268 -95 262 -95 l 227 -95 q 222 -95 222 -90 l 222 -14 l 209 -14 q 169 -14 128 -7 q 87 0 53 10 q 51 11 50 12 q 48 13 48 17 l 48 161 q 48 164 50 166 q 51 168 53 168 l 92 168 q 93 168 95 167 q 98 165 98 162 l 115 56 q 115 55 120 53 q 129 48 142 45 q 154 42 168 40 q 182 37 195 36 q 208 35 219 35 l 222 35 l 222 290 l 195 302 q 165 315 136 331 q 108 346 88 367 q 67 387 55 413 q 42 438 42 472 q 42 511 57 542 q 71 573 96 597 q 121 620 153 634 q 186 648 222 654 l 222 734 q 222 739 227 739 l 262 739 q 268 739 268 734 l 268 657 q 285 657 303 655 q 322 653 342 649 q 361 646 380 643 q 398 639 414 635 q 416 634 417 633 q 418 632 418 628 l 418 484 q 418 481 417 479 q 416 477 414 477 l 375 477 q 375 477 373 479 q 371 480 371 483 z"},"?":{"x_min":0,"x_max":391,"ha":391,"o":"m 158 95 q 180 95 197 78 q 213 62 213 40 q 213 19 197 2 q 180 -14 158 -14 q 125 -14 109 20 q 104 29 104 40 q 104 61 121 78 q 137 95 158 95 z m 145 162 q 137 162 137 168 q 135 182 135 195 q 135 251 148 291 q 165 347 208 405 q 240 448 254 483 q 262 503 262 523 q 262 582 232 613 q 204 642 156 642 q 127 642 100 629 q 96 627 95 621 l 81 547 q 81 543 76 543 l 45 543 q 40 543 40 547 l 40 658 q 40 662 45 663 q 102 683 144 687 q 160 688 180 688 q 256 688 302 653 q 355 613 355 540 q 355 500 332 460 q 316 433 278 392 q 237 346 222 324 q 178 258 178 168 q 178 162 170 162 z"},"<":{"x_min":0,"x_max":500,"ha":500,"o":"m 107 230 l 420 66 q 423 64 423 62 l 423 22 q 423 19 420 18 q 418 17 416 18 l 55 210 q 52 211 52 214 l 52 246 q 52 248 55 250 l 416 442 q 418 443 420 442 q 423 441 423 438 l 423 398 q 423 396 420 394 z"},"'":{"x_min":0,"x_max":219,"ha":219,"o":"m 144 688 q 149 688 149 683 l 127 450 q 127 445 122 445 l 96 445 q 91 445 91 450 l 70 683 q 70 688 74 688 z"},"=":{"x_min":0,"x_max":500,"ha":500,"o":"m 35 178 l 465 178 q 470 178 470 173 l 470 137 q 470 132 465 132 l 35 132 q 30 132 30 137 l 30 173 q 30 178 35 178 z m 35 333 l 465 333 q 470 333 470 328 l 470 292 q 470 287 465 287 l 35 287 q 30 287 30 292 l 30 328 q 30 333 35 333 z"},"a":{"x_min":0,"x_max":443,"ha":443,"o":"m 272 208 q 221 205 195 197 q 188 195 171 189 q 119 171 119 112 q 119 48 183 48 q 202 48 228 57 q 241 62 267 75 q 272 79 272 81 z m 279 44 q 216 -14 142 -14 q 65 -14 39 49 q 30 69 30 93 q 30 175 114 214 q 139 226 166 231 q 224 243 272 247 l 272 324 q 272 402 196 402 q 152 402 120 386 q 117 384 115 378 l 101 304 q 101 300 96 300 l 65 300 q 60 300 60 304 l 60 415 q 60 418 65 420 q 144 448 215 448 q 315 448 345 388 q 356 366 356 331 l 356 61 q 356 57 360 55 l 423 37 q 428 34 428 32 l 428 15 q 426 10 424 10 l 292 -8 q 287 -8 287 -3 z"},"L":{"x_min":0,"x_max":552,"ha":552,"o":"m 38 668 q 38 673 43 673 l 314 673 q 319 673 319 668 l 319 642 q 319 637 314 637 l 224 629 q 219 629 219 624 l 219 51 q 219 46 224 46 l 456 46 q 461 46 461 50 l 481 161 q 481 165 486 165 l 523 165 q 528 165 528 160 l 528 5 q 528 0 523 0 l 43 0 q 38 0 38 5 l 38 31 q 38 36 43 36 l 127 44 q 132 44 132 49 l 132 624 q 132 629 127 629 l 43 637 q 38 637 38 642 z"},"3":{"x_min":0,"x_max":500,"ha":500,"o":"m 148 375 q 148 378 152 378 q 228 378 273 417 q 321 458 321 525 q 321 579 290 609 q 259 639 207 639 q 172 639 116 619 q 111 617 109 610 l 95 508 q 95 504 90 504 l 54 504 q 50 504 50 508 l 50 652 q 50 655 54 657 q 146 688 222 688 q 304 688 356 656 q 419 616 419 541 q 419 492 386 449 q 354 406 301 385 q 376 371 422 321 q 467 271 467 205 q 467 102 385 42 q 310 -14 208 -14 q 158 -14 82 2 q 62 7 45 12 q 41 14 41 16 l 41 168 q 41 172 45 172 l 85 172 q 89 171 89 169 l 109 55 q 109 50 114 49 q 148 32 208 32 q 276 32 317 72 q 358 111 358 183 q 358 255 312 295 q 267 334 190 334 q 168 334 152 332 q 148 332 148 336 z"},";":{"x_min":0,"x_max":250,"ha":250,"o":"m 66 -101 q 65 -100 65 -99 q 65 -97 67 -96 q 137 -63 137 -13 q 137 42 80 42 q 66 56 66 74 q 66 118 113 118 q 146 118 170 94 q 198 66 198 21 q 198 -73 80 -123 q 77 -125 75 -121 z m 132 434 q 171 434 186 399 q 190 388 190 376 q 190 353 173 336 q 154 319 132 319 q 109 319 92 336 q 75 353 75 376 q 75 400 92 417 q 108 434 132 434 z"},"J":{"x_min":0,"x_max":323,"ha":323,"o":"m 301 673 q 301 674 302 674 q 306 674 306 668 l 306 642 q 306 637 301 637 l 216 629 q 211 629 211 624 l 211 111 q 211 5 182 -57 q 143 -142 28 -186 q 24 -186 23 -182 l 11 -162 q 10 -160 10 -159 q 8 -155 11 -153 q 61 -122 81 -98 q 117 -55 124 33 q 126 64 126 106 l 126 624 q 126 629 121 629 l 36 637 q 31 637 31 642 l 31 668 q 31 673 36 673 z"},"V":{"x_min":0,"x_max":712,"ha":712,"o":"m 272 673 q 277 673 277 668 l 277 642 q 277 637 272 637 l 194 629 q 191 629 190 627 q 189 625 190 622 l 375 127 l 566 624 q 568 630 561 631 l 486 637 q 481 638 481 642 l 481 668 q 481 673 486 673 l 703 673 q 708 673 708 668 l 708 642 q 708 637 703 637 l 621 629 q 619 628 617 626 l 368 -11 q 367 -14 364 -14 l 338 -14 q 335 -14 334 -11 l 98 625 q 97 628 94 628 l 14 637 q 10 637 10 642 l 10 668 q 10 673 15 673 z"},"\"":{"x_min":0,"x_max":348,"ha":348,"o":"m 273 688 q 278 688 278 683 l 256 450 q 256 445 251 445 l 225 445 q 220 445 220 450 l 199 683 q 199 688 203 688 z m 144 688 q 149 688 149 683 l 127 450 q 127 445 122 445 l 96 445 q 91 445 91 450 l 70 683 q 70 688 74 688 z"},"7":{"x_min":0,"x_max":500,"ha":500,"o":"m 451 673 q 454 672 455 671 l 469 650 q 470 648 471 647 q 472 646 470 644 l 195 -2 q 192 -5 191 -5 l 95 -5 q 91 -5 91 -1 q 91 0 92 2 l 396 596 l 102 596 q 95 596 95 590 l 82 518 q 82 515 76 515 l 39 515 q 35 515 35 518 l 35 669 q 35 673 39 673 z"},"S":{"x_min":0,"x_max":481,"ha":481,"o":"m 372 503 q 367 503 367 507 l 347 619 q 347 622 343 624 q 300 643 250 643 q 198 643 162 616 q 122 585 122 535 q 122 487 158 453 q 182 431 236 406 l 301 376 q 377 341 412 305 q 455 259 455 192 q 455 91 378 36 q 309 -14 205 -14 q 152 -14 83 1 q 63 6 47 12 q 42 14 42 17 l 42 168 q 42 173 47 173 l 88 173 q 93 171 93 169 l 113 56 q 113 55 115 54 l 117 51 q 152 33 215 33 q 276 33 318 62 q 365 95 365 154 q 365 236 256 287 l 190 318 q 118 352 83 387 q 36 433 36 496 q 36 559 75 608 q 112 655 173 675 q 212 688 256 688 q 314 688 375 674 q 392 670 411 664 q 416 663 416 659 l 416 508 q 416 503 411 503 z"},"}":{"x_min":0,"x_max":323,"ha":323,"o":"m 283 253 q 283 248 278 248 q 266 247 242 239 q 226 229 218 204 q 211 184 211 157 q 211 127 229 59 q 247 -9 247 -45 q 247 -110 208 -146 q 166 -187 79 -192 q 57 -194 40 -194 q 35 -194 35 -188 l 35 -161 q 35 -156 40 -156 q 62 -153 83 -150 q 108 -146 125 -137 q 150 -122 161 -84 q 166 -65 166 -37 q 166 -22 152 106 q 150 129 150 147 q 150 195 173 227 q 188 248 213 264 l 213 268 q 190 281 173 305 q 150 337 150 375 q 150 398 158 459 q 166 520 166 549 q 166 600 146 629 q 132 650 98 660 q 76 666 40 668 q 35 668 35 673 l 35 700 q 35 706 40 706 q 119 706 169 685 q 247 650 247 557 q 247 525 229 459 q 211 393 211 365 q 211 331 227 308 q 234 298 244 292 q 254 287 278 284 q 283 284 283 279 z"},"Z":{"x_min":0,"x_max":624,"ha":624,"o":"m 129 627 q 124 627 124 623 l 104 510 q 104 506 99 506 l 62 506 q 57 506 57 511 l 57 668 q 57 673 62 673 l 551 673 q 554 673 555 670 l 571 643 q 572 642 571 641 l 570 638 l 147 46 l 500 46 q 505 46 505 50 l 525 163 q 525 167 530 167 l 567 167 q 572 167 572 162 l 572 5 q 572 0 567 0 l 53 0 q 50 0 49 3 l 33 30 q 32 32 33 33 q 33 34 34 35 l 454 627 z"},"x":{"x_min":0,"x_max":488,"ha":488,"o":"m 141 47 q 140 44 141 42 q 141 39 144 39 l 186 35 q 191 35 191 30 l 191 5 q 191 0 186 0 l 15 0 q 10 0 10 5 l 10 30 q 10 35 15 35 l 82 42 q 83 42 85 44 l 213 204 q 214 207 213 210 l 87 390 q 85 392 84 392 l 18 399 q 13 399 13 404 l 13 429 q 13 434 18 434 l 231 434 q 236 434 236 429 l 236 404 q 236 399 231 399 l 194 396 q 191 396 189 394 q 188 391 190 388 l 268 275 l 356 387 q 357 390 356 393 q 356 395 353 395 l 320 399 q 315 399 315 404 l 315 429 q 315 434 320 434 l 471 434 q 476 434 476 429 l 476 404 q 476 399 471 399 l 415 393 q 414 393 412 391 l 294 243 q 292 240 294 237 l 428 43 q 430 41 431 41 l 490 35 q 495 35 495 30 l 495 5 q 495 0 490 0 l 283 0 q 278 0 278 5 l 278 30 q 278 35 283 35 l 321 38 q 324 39 325 41 q 326 43 324 46 l 239 172 z"},")":{"x_min":0,"x_max":327,"ha":327,"o":"m 33 -180 q 30 -179 30 -176 q 30 -173 33 -171 q 125 -73 164 49 q 195 146 195 256 q 195 448 109 585 q 76 638 32 683 q 28 688 32 692 l 55 708 q 58 709 60 709 q 62 709 63 708 q 106 669 133 636 q 177 579 202 528 q 247 436 262 329 q 267 292 267 256 q 267 117 202 -16 q 161 -100 97 -164 q 80 -181 63 -196 q 62 -197 60 -198 q 58 -198 55 -196 z"},"&":{"x_min":0,"x_max":731,"ha":731,"o":"m 125 205 q 125 170 137 141 q 149 113 170 93 q 192 73 220 62 q 249 51 281 51 q 318 51 354 68 q 391 86 420 125 l 211 345 q 192 334 177 319 q 161 303 150 284 q 138 265 132 245 q 125 225 125 205 z m 264 642 q 249 642 235 636 q 221 631 211 621 q 200 611 194 596 q 188 582 188 563 q 188 527 208 492 q 229 458 266 419 q 312 442 334 474 q 357 506 357 548 q 357 593 333 617 q 308 642 264 642 z m 281 688 q 315 688 343 677 q 371 667 391 649 q 411 632 422 608 q 432 585 432 558 q 432 537 427 515 q 421 493 406 471 q 391 449 364 428 q 337 407 294 387 l 472 199 q 485 219 497 244 q 509 268 517 293 q 526 318 532 342 q 538 366 540 385 q 540 392 533 392 l 460 398 q 455 398 455 403 l 455 429 q 455 434 460 434 l 674 434 q 679 434 679 429 l 679 403 q 679 398 674 398 l 593 392 q 587 391 586 389 q 585 387 585 385 q 583 364 576 337 q 570 310 559 281 q 548 251 534 220 q 521 190 505 164 l 618 46 q 620 44 623 44 l 706 36 q 711 36 711 31 l 711 5 q 711 0 706 0 l 545 0 q 542 0 540 2 l 454 91 q 435 69 415 50 q 394 31 368 16 q 343 2 310 -6 q 278 -14 235 -14 q 192 -14 156 0 q 120 14 93 38 q 66 62 51 94 q 35 127 35 164 q 35 231 71 283 q 107 335 182 377 q 162 400 148 419 q 135 438 126 456 q 118 474 115 493 q 111 511 111 532 q 111 566 124 594 q 136 623 159 644 q 182 665 213 677 q 244 688 281 688 z"},"_":{"x_min":0,"x_max":500,"ha":500,"o":"m 0 -90 l 500 -90 l 500 -136 l 0 -136 z"},"v":{"x_min":0,"x_max":508,"ha":508,"o":"m 391 387 q 392 390 391 392 q 390 394 387 394 l 335 400 q 331 400 331 404 l 331 429 q 331 434 336 434 l 497 434 q 502 434 502 429 l 502 405 q 502 400 497 400 l 442 394 q 439 394 438 391 l 270 -7 q 269 -10 266 -10 l 243 -10 q 241 -9 239 -7 l 70 390 q 68 393 66 393 l 8 400 q 4 400 4 404 l 4 429 q 4 434 9 434 l 217 434 q 222 434 222 429 l 222 404 q 222 400 218 400 l 166 394 q 159 394 162 387 l 277 113 z"},"O":{"x_min":0,"x_max":756,"ha":756,"o":"m 382 688 q 533 688 626 588 q 718 491 718 339 q 718 188 626 88 q 532 -14 382 -14 q 231 -14 135 85 q 38 184 38 335 q 38 487 133 587 q 230 688 382 688 z m 370 643 q 258 643 193 555 q 135 475 135 359 q 135 275 163 204 q 195 125 256 78 q 317 31 395 31 q 508 31 569 122 q 621 200 621 319 q 621 452 555 544 q 484 643 370 643 z"},"(":{"x_min":0,"x_max":327,"ha":327,"o":"m 295 692 q 296 690 296 688 q 296 686 295 683 q 203 589 163 463 q 132 363 132 256 q 132 63 218 -73 q 252 -126 295 -171 q 297 -173 297 -176 q 297 -178 295 -180 l 272 -196 q 270 -198 268 -198 q 267 -197 266 -197 q 265 -196 264 -196 q 226 -163 194 -125 q 155 -76 125 -16 q 60 115 60 256 q 60 362 99 468 q 124 536 159 587 q 197 643 230 676 q 247 693 264 708 q 266 709 268 709 q 270 709 272 708 z"},"C":{"x_min":0,"x_max":647,"ha":647,"o":"m 419 688 q 437 688 460 686 q 483 683 506 679 q 530 676 552 671 q 575 667 592 664 q 597 663 597 659 l 597 508 q 597 503 592 503 l 553 503 q 551 503 549 504 q 548 505 548 507 l 528 619 q 528 622 524 624 q 515 626 501 629 q 488 633 473 636 q 459 639 444 641 q 428 643 414 643 q 347 643 295 623 q 243 602 208 564 q 172 527 153 474 q 135 422 135 359 q 135 293 154 234 q 174 175 210 130 q 246 85 297 59 q 348 33 410 33 q 421 33 437 34 q 452 35 468 37 q 483 39 498 42 q 513 45 524 51 q 528 53 528 56 l 548 169 q 548 170 549 171 q 551 173 553 173 l 592 173 q 597 173 597 168 l 597 17 q 597 14 592 12 q 575 8 555 3 q 535 -1 511 -5 q 488 -9 460 -11 q 433 -14 400 -14 q 345 -14 297 -2 q 249 10 208 32 q 168 55 136 87 q 105 118 83 156 q 62 195 50 240 q 38 286 38 335 q 38 391 52 439 q 66 487 92 526 q 117 566 152 596 q 187 626 229 646 q 271 667 320 677 q 368 688 419 688 z"},"W":{"x_min":0,"x_max":1036,"ha":1036,"o":"m 272 673 q 277 673 277 668 l 277 642 q 277 637 272 637 l 196 629 q 193 629 192 627 q 191 625 192 622 l 372 127 l 499 476 l 447 625 q 445 628 443 628 l 361 637 q 357 637 357 642 l 357 668 q 357 673 362 673 l 619 673 q 624 673 624 668 l 624 642 q 624 637 619 637 l 543 629 q 537 629 539 622 l 709 126 l 887 624 q 890 630 882 631 l 809 637 q 804 638 804 642 l 804 668 q 804 673 809 673 l 1027 673 q 1032 673 1032 668 l 1032 642 q 1032 637 1027 637 l 943 629 q 940 629 939 626 l 703 -11 q 702 -14 699 -14 l 672 -14 q 669 -14 668 -11 l 521 410 l 364 -11 q 362 -14 360 -14 l 335 -14 q 333 -14 331 -11 l 100 625 q 99 628 96 628 l 14 637 q 10 637 10 642 l 10 668 q 10 673 15 673 z"},"A":{"x_min":0,"x_max":710,"ha":710,"o":"m 341 538 q 339 541 337 541 q 334 541 333 538 l 239 299 q 236 292 243 292 l 424 292 q 432 292 429 299 z m 438 0 q 433 0 433 5 l 433 31 q 433 36 438 36 l 516 44 q 519 44 520 46 q 521 48 520 51 l 446 247 q 444 250 442 250 l 224 250 q 222 250 220 247 l 141 49 q 139 42 146 42 l 221 36 q 226 36 226 31 l 226 5 q 226 0 221 0 l 5 0 q 0 0 0 5 l 0 31 q 0 36 5 36 l 87 44 q 89 44 91 47 l 345 687 q 347 690 349 690 l 374 690 q 376 689 378 687 l 612 48 q 613 45 616 45 l 696 36 q 700 36 700 31 l 700 5 q 700 0 695 0 z"},"f":{"x_min":0,"x_max":318,"ha":318,"o":"m 23 0 q 18 0 18 5 l 18 30 q 18 35 23 35 l 101 42 q 106 42 106 47 l 106 381 q 104 384 101 384 l 27 384 q 22 384 22 389 l 22 414 q 22 419 27 419 l 101 428 q 106 428 106 433 l 106 478 q 106 604 153 654 q 202 706 285 706 q 320 706 379 691 q 384 688 384 685 l 384 572 q 384 568 379 568 l 348 568 q 343 568 343 572 l 330 640 q 328 650 302 657 q 290 660 275 660 q 187 660 187 521 l 187 435 q 187 430 192 430 l 312 430 q 317 430 317 425 l 317 389 q 317 384 312 384 l 192 384 q 187 384 187 379 l 187 47 q 187 42 192 42 l 271 35 q 276 35 276 30 l 276 5 q 276 0 271 0 z"},"Q":{"x_min":0,"x_max":756,"ha":756,"o":"m 382 688 q 533 688 626 588 q 718 491 718 339 q 718 167 602 66 q 564 33 519 13 q 516 12 516 10 q 516 7 517 6 q 579 -38 657 -72 q 750 -113 810 -113 q 846 -113 900 -103 q 904 -103 904 -106 l 916 -137 q 917 -139 916 -140 l 913 -142 l 785 -204 q 742 -200 679 -171 q 582 -127 494 -58 q 464 -34 442 -12 q 440 -10 438 -10 l 434 -10 q 412 -14 382 -14 q 231 -14 135 85 q 38 184 38 335 q 38 487 133 587 q 230 688 382 688 z m 370 643 q 258 643 193 555 q 135 475 135 359 q 135 275 163 204 q 195 125 256 78 q 317 31 395 31 q 508 31 569 122 q 621 200 621 319 q 621 452 555 544 q 484 643 370 643 z"},"w":{"x_min":0,"x_max":771,"ha":771,"o":"m 366 320 q 368 323 369 327 q 368 328 366 332 l 343 390 q 341 393 339 393 l 286 400 q 282 400 282 404 l 282 429 q 282 434 287 434 l 488 434 q 493 434 493 429 l 493 404 q 493 400 489 400 l 437 394 q 430 394 433 387 l 544 115 l 654 387 q 657 394 650 394 l 598 400 q 594 400 594 404 l 594 429 q 594 434 599 434 l 760 434 q 765 434 765 429 l 765 405 q 765 400 760 400 l 705 394 q 703 394 701 391 l 538 -7 q 537 -10 534 -10 l 509 -10 q 506 -10 505 -7 l 389 276 l 264 -7 q 263 -10 260 -10 l 237 -10 q 234 -10 233 -7 l 70 390 q 68 393 66 393 l 8 400 q 4 400 4 404 l 4 429 q 4 434 9 434 l 217 434 q 216 435 216 435 q 222 435 222 429 l 222 404 q 222 400 218 400 l 166 394 q 159 394 162 387 l 274 115 z"},"-":{"x_min":0,"x_max":379,"ha":379,"o":"m 55 232 q 50 232 50 237 l 50 279 q 50 284 55 284 l 324 284 q 329 284 329 279 l 329 237 q 329 232 324 232 z"},"E":{"x_min":0,"x_max":584,"ha":584,"o":"m 520 673 q 525 673 525 668 l 525 511 q 525 506 520 506 l 483 506 q 478 506 478 510 l 458 623 q 458 627 453 627 l 224 627 q 219 627 219 622 l 219 375 q 219 370 224 370 l 362 370 q 367 370 367 374 l 377 455 q 377 459 382 459 l 409 459 q 414 459 414 454 l 414 237 q 414 232 409 232 l 382 232 q 377 232 377 236 l 367 322 q 367 326 362 326 l 224 326 q 219 326 219 321 l 219 51 q 219 46 224 46 l 467 46 q 472 46 472 50 l 492 161 q 492 165 497 165 l 534 165 q 539 165 539 160 l 539 5 q 539 0 534 0 l 42 0 q 37 0 37 5 l 37 31 q 37 36 42 36 l 127 44 q 132 44 132 49 l 132 626 q 130 629 127 629 l 42 637 q 37 637 37 642 l 37 668 q 37 673 42 673 z"},"s":{"x_min":0,"x_max":359,"ha":359,"o":"m 270 308 q 265 310 265 312 l 249 390 q 249 394 245 396 q 221 407 190 407 q 137 407 117 372 q 110 358 110 343 q 110 297 182 268 l 224 251 q 334 206 334 129 q 334 62 278 22 q 229 -14 159 -14 q 109 -14 41 9 q 36 10 36 14 l 36 130 q 36 134 41 134 l 72 134 q 77 134 77 130 l 93 50 q 93 48 97 44 q 131 28 168 28 q 254 28 254 100 q 254 143 210 164 q 203 167 183 176 l 138 194 q 32 236 32 319 q 32 377 85 416 q 130 448 194 448 q 246 448 301 430 q 306 429 306 425 l 306 312 q 306 308 301 308 z"},">":{"x_min":0,"x_max":500,"ha":500,"o":"m 393 230 l 80 394 q 77 396 77 398 l 77 438 q 77 441 80 442 q 82 443 84 442 l 445 250 q 448 248 448 246 l 448 214 q 448 211 445 210 l 84 18 q 82 17 80 18 q 77 19 77 22 l 77 62 q 77 64 80 66 z"},"l":{"x_min":0,"x_max":286,"ha":286,"o":"m 106 639 q 106 644 101 644 l 23 652 q 18 652 18 657 l 18 680 q 20 685 22 685 l 148 705 q 151 706 153 706 l 182 706 q 187 706 187 701 l 187 47 q 187 42 192 42 l 271 35 q 276 35 276 30 l 276 5 q 276 0 271 0 l 23 0 q 18 0 18 5 l 18 30 q 18 35 23 35 l 101 42 q 106 42 106 47 z"},"8":{"x_min":0,"x_max":500,"ha":500,"o":"m 250 36 q 329 36 355 108 q 364 131 364 158 q 364 237 280 288 q 253 304 222 319 q 179 299 154 256 q 130 214 130 164 q 130 77 197 47 q 220 36 250 36 z m 244 640 q 201 640 176 610 q 152 579 152 535 q 152 481 182 448 q 206 420 268 389 l 275 389 q 348 431 348 527 q 348 578 321 609 q 293 640 244 640 z m 255 688 q 333 688 384 647 q 438 604 438 534 q 438 426 317 363 q 397 324 431 282 q 469 235 469 172 q 469 108 428 61 q 391 18 328 -1 q 286 -14 241 -14 q 154 -14 95 31 q 31 79 31 156 q 31 221 69 267 q 105 311 175 344 q 112 378 82 417 q 51 456 51 515 q 51 596 111 644 q 166 688 255 688 z"},"\\":{"x_min":0,"x_max":310,"ha":310,"o":"m 41 705 q 46 707 48 702 l 318 -43 q 320 -48 315 -50 l 278 -62 q 272 -64 271 -59 l 1 686 q -1 691 4 693 z"},"e":{"x_min":0,"x_max":459,"ha":459,"o":"m 233 404 q 155 404 132 317 q 125 291 123 266 l 327 266 q 332 404 233 404 z m 122 227 q 124 146 160 97 q 202 42 280 42 q 342 42 397 76 q 399 78 400 77 q 401 76 403 74 l 417 50 q 418 45 414 43 q 329 -14 241 -14 q 144 -14 87 46 q 32 105 32 203 q 32 304 86 373 q 145 448 242 448 q 329 448 374 399 q 417 351 417 264 q 417 249 415 232 q 415 227 410 227 z"},"b":{"x_min":0,"x_max":525,"ha":525,"o":"m 177 53 q 199 31 258 31 q 362 31 394 142 q 403 175 403 215 q 403 285 376 329 q 344 382 278 382 q 229 382 179 353 q 177 352 177 349 z m 138 705 q 141 706 143 706 l 172 706 q 177 706 177 701 l 177 392 q 241 448 321 448 q 400 448 448 385 q 493 327 493 243 q 493 133 427 61 q 359 -14 250 -14 q 210 -14 161 -1 q 120 9 96 28 l 96 639 q 96 644 91 644 l 13 652 q 8 652 8 657 l 8 680 q 8 685 12 685 z"},"%":{"x_min":0,"x_max":840,"ha":840,"o":"m 606 694 l 632 678 q 636 674 633 671 l 243 -14 q 242 -17 240 -18 q 237 -18 236 -17 l 209 -1 q 205 2 208 7 l 598 692 q 602 697 606 694 z m 658 28 q 679 28 695 40 q 711 52 723 74 q 734 96 740 126 q 747 156 747 192 q 747 228 740 260 q 733 291 721 313 q 709 336 692 349 q 675 363 655 363 q 632 363 615 351 q 599 339 587 317 q 575 295 569 265 q 562 235 562 198 q 562 162 569 131 q 576 100 588 77 q 601 54 618 41 q 636 28 658 28 z m 651 -14 q 611 -14 581 1 q 550 16 529 43 q 508 70 497 108 q 486 146 486 192 q 486 238 499 276 q 511 315 533 344 q 556 373 587 389 q 619 405 657 405 q 696 405 727 390 q 757 375 779 347 q 800 320 812 282 q 823 245 823 199 q 823 153 811 114 q 798 75 776 47 q 753 18 721 2 q 689 -14 651 -14 z m 188 311 q 209 311 226 323 q 243 335 254 357 q 265 379 271 409 q 277 439 277 475 q 277 511 271 542 q 264 573 252 597 q 240 620 224 633 q 207 646 186 646 q 164 646 146 634 q 129 622 117 601 q 105 579 99 549 q 93 518 93 481 q 93 445 99 414 q 106 383 118 360 q 130 337 148 324 q 166 311 188 311 z m 182 269 q 143 269 113 284 q 82 299 61 326 q 39 354 28 392 q 17 429 17 475 q 17 521 30 560 q 42 599 64 627 q 86 656 117 672 q 149 688 187 688 q 227 688 258 673 q 288 658 310 631 q 331 604 342 566 q 353 528 353 482 q 353 436 341 397 q 329 358 307 329 q 284 301 253 285 q 221 269 182 269 z"},"m":{"x_min":0,"x_max":821,"ha":821,"o":"m 31 423 l 151 443 q 157 444 161 444 l 185 444 q 190 444 190 439 l 190 396 q 262 450 335 450 q 409 450 444 386 q 516 446 600 446 q 728 446 728 301 l 728 47 q 728 42 733 42 l 798 35 q 803 35 803 30 l 803 5 q 803 0 798 0 l 584 0 q 579 0 579 5 l 579 30 q 579 35 584 35 l 642 42 q 647 42 647 47 l 647 271 q 647 379 555 379 q 498 379 455 352 q 459 336 459 307 l 459 47 q 459 42 464 42 l 522 35 q 527 35 527 30 l 527 5 q 527 0 522 0 l 315 0 q 310 0 310 5 l 310 30 q 310 35 315 35 l 373 42 q 378 42 378 47 l 378 276 q 378 384 290 384 q 241 384 195 361 q 193 360 190 357 l 190 47 q 190 42 195 42 l 253 35 q 258 35 258 30 l 258 5 q 258 0 253 0 l 34 0 q 29 0 29 5 l 29 30 q 29 35 34 35 l 104 42 q 109 42 109 47 l 109 377 q 109 382 104 382 l 32 390 q 27 390 27 395 l 27 418 q 27 423 31 423 z"},"#":{"x_min":0,"x_max":500,"ha":500,"o":"m 180 243 l 293 243 l 319 381 l 206 381 z m 209 620 q 209 622 210 623 q 212 624 214 624 l 247 624 q 250 624 251 623 q 253 621 252 618 l 216 434 l 329 434 l 365 620 q 365 622 367 623 q 369 624 370 624 l 403 624 q 405 624 407 623 q 409 621 408 618 l 372 434 l 479 434 q 481 434 483 433 q 485 431 484 428 l 475 385 q 475 383 474 382 q 472 381 470 381 l 362 381 l 336 243 l 440 243 q 442 243 444 241 q 446 239 445 237 l 436 194 q 436 192 435 191 q 433 190 431 190 l 326 190 l 291 4 q 291 2 290 1 q 288 0 286 0 l 253 0 q 250 0 249 1 q 247 3 248 6 l 283 190 l 170 190 l 135 4 q 135 2 133 1 q 131 0 130 0 l 97 0 q 95 0 93 1 q 91 3 92 6 l 127 190 l 21 190 q 19 190 17 191 q 15 193 16 196 l 25 241 l 25 239 q 25 241 26 242 q 28 243 30 243 l 137 243 l 163 381 l 60 381 q 58 381 56 383 q 54 385 55 387 l 64 430 q 64 432 65 433 q 67 434 69 434 l 173 434 z"},",":{"x_min":0,"x_max":250,"ha":250,"o":"m 62 -101 q 61 -100 61 -99 q 62 -97 63 -96 q 133 -63 133 -13 q 133 42 76 42 q 62 56 62 74 q 62 118 109 118 q 142 118 167 94 q 194 67 194 21 q 194 -73 76 -123 q 73 -125 71 -121 z"},"n":{"x_min":0,"x_max":566,"ha":566,"o":"m 151 443 q 156 444 157 444 l 185 444 q 190 444 190 439 l 190 396 q 235 432 300 446 q 320 450 344 450 q 473 450 473 305 l 473 47 q 473 42 478 42 l 543 35 q 548 35 548 30 l 548 5 q 548 0 543 0 l 324 0 q 319 0 319 5 l 319 30 q 319 35 324 35 l 387 42 q 392 42 392 47 l 392 276 q 392 330 373 355 q 351 384 299 384 q 240 384 195 361 q 191 359 190 357 l 190 47 q 190 42 195 42 l 258 35 q 263 35 263 30 l 263 5 q 263 0 258 0 l 34 0 q 29 0 29 5 l 29 30 q 29 35 34 35 l 104 42 q 109 42 109 47 l 109 377 q 109 382 104 382 l 32 390 q 27 390 27 395 l 27 418 q 27 423 31 423 z"},"h":{"x_min":0,"x_max":571,"ha":571,"o":"m 148 705 q 151 706 153 706 l 182 706 q 187 706 187 701 l 187 396 q 266 450 341 450 q 470 450 470 305 l 470 47 q 470 42 475 42 l 540 35 q 545 35 545 30 l 545 5 q 545 0 540 0 l 321 0 q 316 0 316 5 l 316 30 q 316 35 321 35 l 384 42 q 389 42 389 47 l 389 276 q 389 384 296 384 q 261 384 215 370 q 202 366 192 361 q 187 359 187 355 l 187 47 q 187 42 192 42 l 255 35 q 260 35 260 30 l 260 5 q 260 0 255 0 l 31 0 q 26 0 26 5 l 26 30 q 26 35 31 35 l 101 42 q 106 42 106 47 l 106 639 q 106 644 101 644 l 23 652 q 18 652 18 657 l 18 680 q 18 685 22 685 z"},"z":{"x_min":0,"x_max":449,"ha":449,"o":"m 342 42 q 345 42 347 46 l 365 130 q 367 134 370 134 l 399 134 q 404 134 404 129 l 404 5 q 404 0 399 0 l 40 0 q 37 0 35 4 l 30 25 l 30 27 q 30 28 31 29 l 293 392 l 108 392 q 103 392 103 388 l 86 304 q 86 300 81 300 l 52 300 q 47 300 47 305 l 47 429 q 47 434 52 434 l 396 434 q 399 434 401 431 l 407 412 l 407 410 q 407 409 406 408 l 139 42 z"},"B":{"x_min":0,"x_max":602,"ha":602,"o":"m 219 384 q 219 379 224 379 l 255 379 q 336 379 378 404 q 433 437 433 508 q 433 566 394 596 q 357 624 300 625 l 262 627 l 224 627 q 219 627 219 622 z m 219 51 q 219 46 224 46 l 287 46 q 467 46 467 181 q 467 341 268 341 l 224 341 q 219 341 219 336 z m 275 673 q 398 673 450 645 q 486 626 503 599 q 524 564 524 519 q 524 414 402 370 q 472 355 517 309 q 567 258 567 190 q 567 135 535 88 q 476 0 298 0 l 42 0 q 37 0 37 5 l 37 31 q 37 36 42 36 l 127 44 q 132 44 132 49 l 132 624 q 132 629 127 629 l 42 637 q 37 637 37 642 l 37 668 q 37 673 42 673 z"},"K":{"x_min":0,"x_max":667,"ha":667,"o":"m 42 668 q 42 673 47 673 l 290 673 q 295 673 295 668 l 295 641 q 295 637 291 637 l 223 629 q 219 629 219 624 l 219 353 l 461 625 q 463 627 462 630 q 461 633 458 633 l 417 637 q 412 637 412 642 l 412 668 q 412 673 417 673 l 619 673 q 624 673 624 668 l 624 642 q 624 637 619 637 l 526 628 q 524 628 523 627 l 317 395 q 315 394 315 392 l 316 389 l 568 47 q 570 45 571 45 l 662 36 q 667 36 667 31 l 667 5 q 667 0 662 0 l 412 0 q 407 0 407 5 l 407 31 q 407 36 412 36 l 456 40 q 459 40 460 42 q 461 45 460 48 l 257 321 q 255 323 253 323 q 251 323 250 321 l 220 287 q 219 286 219 284 l 219 48 q 219 43 223 43 l 288 36 q 292 36 292 32 l 292 5 q 292 0 287 0 l 47 0 q 42 0 42 5 l 42 31 q 42 36 47 36 l 127 44 q 132 44 132 49 l 132 624 q 132 629 127 629 l 47 637 q 42 637 42 642 z"},"R":{"x_min":0,"x_max":653,"ha":653,"o":"m 221 360 q 221 355 225 355 q 294 355 322 357 q 394 364 426 414 q 445 442 445 483 q 445 627 261 627 l 226 627 q 221 627 221 622 z m 278 673 q 414 673 473 631 q 543 582 543 497 q 543 400 448 350 q 418 334 385 325 q 437 300 482 213 l 568 48 q 570 44 575 44 l 648 36 q 653 36 653 31 l 653 5 q 653 0 648 0 l 491 0 q 486 0 484 4 l 398 184 q 336 314 238 314 l 226 314 q 221 314 221 310 l 221 49 q 221 44 226 44 l 321 36 q 326 36 326 31 l 326 5 q 326 0 321 0 l 42 0 q 37 0 37 5 l 37 31 q 37 36 42 36 l 127 44 q 132 44 132 49 l 132 624 q 132 629 127 629 l 42 637 q 37 637 37 642 l 37 668 q 37 673 42 673 z"},"T":{"x_min":0,"x_max":603,"ha":603,"o":"m 578 673 q 583 673 583 668 l 583 511 q 583 506 578 506 l 541 506 q 536 506 536 510 l 516 623 q 516 627 511 627 l 349 627 q 345 627 345 622 l 345 49 q 345 44 350 44 l 445 36 q 450 36 450 31 l 450 5 q 450 0 445 0 l 158 0 q 153 0 153 5 l 153 31 q 153 36 158 36 l 253 44 q 258 44 258 49 l 258 622 q 258 627 254 627 l 92 627 q 87 627 87 623 l 67 510 q 67 506 62 506 l 25 506 q 20 506 20 511 l 20 668 q 20 673 25 673 z"},"P":{"x_min":0,"x_max":590,"ha":590,"o":"m 226 627 q 221 627 221 622 l 221 338 q 221 333 226 333 l 284 333 q 461 333 461 488 q 461 563 406 597 q 358 627 275 627 z m 292 673 q 388 673 437 656 q 560 614 560 482 q 560 394 481 337 q 411 288 318 286 l 221 303 l 221 49 q 221 44 226 44 l 321 36 q 326 36 326 31 l 326 5 q 326 0 321 0 l 42 0 q 37 0 37 5 l 37 31 q 37 36 42 36 l 127 44 q 132 44 132 49 l 132 624 q 132 629 127 629 l 42 637 q 37 637 37 642 l 37 668 q 37 673 42 673 z"},"|":{"x_min":0,"x_max":249,"ha":249,"o":"m 100 751 q 100 756 105 756 l 144 756 q 149 756 149 751 l 149 -290 q 149 -295 144 -295 l 105 -295 q 100 -295 100 -290 z"},"t":{"x_min":0,"x_max":330,"ha":330,"o":"m 77 379 q 77 384 72 384 l 14 384 q 10 384 10 388 l 10 393 q 10 396 13 399 l 141 528 q 146 532 149 532 l 154 532 q 158 532 158 527 l 158 435 q 158 430 163 430 l 296 430 q 301 430 301 425 l 301 389 q 301 384 296 384 l 163 384 q 158 384 158 379 l 158 113 q 158 41 222 41 q 269 41 298 65 q 300 67 303 66 q 305 66 306 65 l 319 40 q 320 36 316 33 q 277 7 250 -2 q 212 -14 174 -14 q 133 -14 105 11 q 77 37 77 77 z"},"M":{"x_min":0,"x_max":903,"ha":903,"o":"m 235 673 q 237 672 239 670 l 452 144 l 666 670 q 667 673 670 673 l 869 673 q 874 673 874 668 l 874 642 q 874 637 869 637 l 784 629 q 779 629 779 624 l 779 49 q 779 44 784 44 l 874 36 q 879 36 879 31 l 879 5 q 879 0 874 0 l 593 0 q 588 0 588 5 l 588 31 q 588 36 593 36 l 687 44 q 692 44 692 49 l 692 604 l 688 604 l 441 -7 q 440 -9 436 -9 l 426 -9 q 422 -9 421 -7 l 174 597 l 170 597 l 170 49 q 170 44 175 44 l 258 36 q 263 36 263 31 l 263 5 q 263 0 258 0 l 29 0 q 24 0 24 5 l 24 31 q 24 36 29 36 l 118 44 q 123 44 123 49 l 123 624 q 123 629 118 629 l 33 637 q 28 637 28 642 l 28 668 q 28 673 33 673 z"},"g":{"x_min":0,"x_max":476,"ha":476,"o":"m 171 -28 q 142 -33 121 -63 q 99 -93 99 -123 q 99 -217 231 -217 q 292 -217 333 -194 q 382 -166 382 -109 q 382 -28 255 -28 z m 234 169 q 286 169 305 228 q 312 250 312 283 q 312 406 230 406 q 173 406 154 345 q 147 321 147 289 q 147 227 175 194 q 197 169 234 169 z m 164 137 q 129 117 129 92 q 129 55 159 50 q 169 49 182 49 l 260 49 q 325 49 357 42 q 412 31 439 -5 q 456 -27 461 -58 q 463 -70 463 -80 q 463 -144 417 -188 q 377 -228 312 -246 q 269 -258 218 -258 q 142 -258 90 -234 q 21 -203 21 -136 q 21 -101 51 -65 q 79 -33 114 -19 q 88 -12 73 10 q 57 31 57 58 q 57 108 131 153 q 60 197 60 284 q 60 355 112 402 q 162 448 234 448 q 272 448 305 434 l 451 434 q 456 434 456 429 l 456 404 q 456 399 451 399 l 363 392 q 401 350 401 289 q 401 219 351 173 q 301 127 230 127 q 193 127 164 137 z"},"j":{"x_min":0,"x_max":258,"ha":258,"o":"m 133 678 q 157 678 172 664 q 187 649 187 625 q 187 602 172 587 q 156 572 133 572 q 109 572 94 587 q 79 602 79 625 q 79 648 94 663 q 109 678 133 678 z m 140 443 q 142 443 146 444 l 174 444 q 179 444 179 439 l 179 30 q 179 -75 152 -132 q 114 -212 5 -256 q 1 -256 0 -252 l -12 -231 q -15 -226 -12 -223 q 36 -193 54 -170 q 83 -134 93 -77 q 98 -44 98 25 l 98 377 q 98 382 93 382 l 21 390 q 16 390 16 395 l 16 418 q 18 423 20 423 z"},"i":{"x_min":0,"x_max":285,"ha":285,"o":"m 142 678 q 166 678 181 663 q 196 648 196 625 q 196 602 181 587 q 166 572 142 572 q 119 572 103 587 q 88 602 88 625 q 88 648 103 663 q 119 678 142 678 z m 32 0 q 27 0 27 5 l 27 30 q 27 35 32 35 l 102 42 q 107 42 107 47 l 107 377 q 107 382 102 382 l 30 390 q 25 390 25 395 l 25 418 q 25 423 29 423 l 149 443 q 151 443 155 444 l 183 444 q 188 444 188 439 l 188 47 q 188 42 193 42 l 258 35 q 263 35 263 30 l 263 5 q 263 0 258 0 z"},"y":{"x_min":0,"x_max":518,"ha":518,"o":"m 217 434 q 222 434 222 429 l 222 404 q 222 400 218 400 l 166 394 q 159 394 162 387 l 280 102 l 401 387 q 404 394 397 394 l 345 400 q 341 400 341 404 l 341 429 q 341 434 346 434 l 507 434 q 512 434 512 429 l 512 405 q 512 400 507 400 l 452 394 q 450 394 448 391 l 269 -31 q 172 -258 101 -258 q 98 -258 94 -256 l 47 -209 q 43 -206 46 -202 l 58 -182 q 60 -180 63 -180 q 110 -180 140 -158 q 164 -141 191 -95 q 208 -66 233 -9 q 235 -4 233 4 l 70 390 q 68 393 66 393 l 8 400 q 4 400 4 404 l 4 429 q 4 434 9 434 z"},"@":{"x_min":0,"x_max":845,"ha":845,"o":"m 518 378 q 503 410 467 410 q 420 410 381 370 q 348 334 328 272 q 309 214 309 158 q 309 112 322 84 q 339 46 370 46 q 386 46 405 58 q 436 78 487 124 z m 570 446 q 571 446 571 446 q 572 447 573 447 l 594 442 q 597 441 597 440 l 597 437 l 561 116 q 559 99 561 83 q 564 55 583 42 q 592 37 602 37 q 613 37 625 42 q 641 49 649 57 q 667 69 686 94 q 719 140 731 209 q 738 243 738 279 q 738 417 657 499 q 579 577 450 577 q 342 577 263 516 q 193 462 156 371 q 121 288 121 197 q 121 29 217 -62 q 305 -146 443 -147 q 521 -148 584 -126 q 610 -117 633 -101 q 634 -100 637 -101 q 639 -101 640 -102 l 653 -122 q 654 -125 653 -127 q 653 -129 652 -130 q 614 -164 539 -181 q 476 -195 423 -195 q 288 -195 190 -127 q 88 -58 55 68 q 40 121 40 185 q 40 309 98 410 q 153 507 249 564 q 345 621 455 621 q 551 621 626 585 q 752 525 792 391 q 805 344 805 286 q 805 166 733 76 q 687 18 629 -3 q 599 -14 567 -14 q 535 -14 516 6 q 492 29 485 72 q 432 19 394 0 q 366 -14 343 -14 q 300 -14 269 16 q 241 42 230 85 q 223 113 223 140 q 223 214 256 285 q 290 359 347 403 q 407 450 468 450 q 498 450 535 432 z"},".":{"x_min":0,"x_max":250,"ha":250,"o":"m 125 101 q 163 101 178 66 q 182 55 182 43 q 182 20 165 3 q 146 -14 125 -14 q 101 -14 84 3 q 67 20 67 43 q 67 67 84 84 q 101 101 125 101 z"},"p":{"x_min":0,"x_max":522,"ha":522,"o":"m 174 53 q 196 31 255 31 q 359 31 391 142 q 400 175 400 215 q 400 285 373 329 q 341 382 275 382 q 222 382 179 355 q 174 353 174 349 z m 135 443 q 137 443 141 444 l 169 444 q 174 444 174 439 l 174 392 q 243 448 318 448 q 398 448 446 384 q 490 326 490 243 q 490 132 425 60 q 357 -14 247 -14 q 217 -14 174 -5 l 174 -198 q 174 -203 179 -203 l 256 -210 q 261 -210 261 -215 l 261 -240 q 261 -245 256 -245 l 18 -245 q 13 -245 13 -240 l 13 -215 q 13 -210 18 -210 l 88 -203 q 93 -203 93 -198 l 93 377 q 93 382 88 382 l 16 390 q 11 390 11 395 l 11 418 q 13 423 15 423 z"},"X":{"x_min":0,"x_max":652,"ha":652,"o":"m 285 673 q 290 673 290 668 l 290 642 q 290 637 285 637 l 213 631 q 210 631 209 628 q 208 625 209 623 l 343 405 l 495 623 q 496 624 496 625 q 496 631 491 631 l 422 637 q 417 637 417 642 l 417 668 q 417 673 422 673 l 635 673 q 640 673 640 668 l 640 642 q 640 637 635 637 l 560 630 q 558 629 556 628 l 370 361 l 564 46 q 566 44 568 44 l 653 36 q 658 36 658 31 l 658 5 q 658 0 653 0 l 383 0 q 378 0 378 5 l 378 31 q 378 36 383 36 l 455 42 q 458 42 459 44 q 460 47 459 50 l 312 287 l 148 50 q 146 47 147 44 q 148 43 148 43 q 150 42 152 42 l 221 36 q 226 36 226 31 l 226 5 q 226 0 221 0 l 8 0 q 3 0 3 5 l 3 31 q 3 36 8 36 l 83 43 q 85 43 87 45 l 285 331 l 104 627 q 102 629 100 629 l 15 637 q 10 637 10 642 l 10 668 q 10 673 15 673 z"},"*":{"x_min":0,"x_max":312,"ha":312,"o":"m 60 449 q 59 447 57 448 q 54 448 52 450 l 27 494 q 23 499 29 501 l 128 539 l 29 577 q 23 579 27 584 l 52 628 q 54 631 57 631 q 59 630 60 629 l 142 563 l 126 667 q 126 673 131 673 l 181 673 q 186 673 186 667 l 170 563 l 252 629 q 253 630 256 630 q 258 629 260 628 l 285 584 q 289 579 283 577 l 184 539 l 283 501 q 289 499 285 494 l 260 450 q 258 448 255 448 q 253 447 252 449 l 170 515 l 186 411 q 186 405 181 405 l 131 405 q 126 405 126 411 l 142 515 z"},"Y":{"x_min":0,"x_max":675,"ha":675,"o":"m 532 623 q 533 624 533 625 q 533 631 528 631 l 459 637 q 454 637 454 642 l 454 668 q 454 673 459 673 l 666 673 q 671 673 671 668 l 671 642 q 671 637 666 637 l 591 630 q 588 629 587 628 l 388 287 q 387 286 387 282 l 387 49 q 387 44 392 44 l 477 36 q 482 36 482 31 l 482 5 q 482 0 477 0 l 210 0 q 205 0 205 5 l 205 31 q 205 36 210 36 l 295 44 q 300 44 300 49 l 300 277 q 300 281 299 283 l 104 627 q 102 629 100 629 l 15 637 q 10 637 10 642 l 10 668 q 10 673 15 673 l 281 673 q 286 673 286 668 l 286 642 q 286 637 281 637 l 209 631 q 206 631 205 628 q 204 625 205 623 l 365 333 z"},"c":{"x_min":0,"x_max":446,"ha":446,"o":"m 261 448 q 331 448 392 425 q 397 423 397 420 l 397 304 q 397 300 392 300 l 361 300 q 356 300 356 304 l 340 380 q 340 383 336 386 q 294 406 258 406 q 193 406 155 353 q 121 306 121 239 q 121 155 158 103 q 200 42 280 42 q 339 42 393 78 q 396 80 397 79 q 398 78 399 76 l 413 52 q 415 48 410 45 q 325 -14 243 -14 q 146 -14 89 46 q 32 105 32 203 q 32 306 95 376 q 160 448 261 448 z"},"!":{"x_min":0,"x_max":265,"ha":265,"o":"m 124 162 q 120 162 119 167 l 80 668 q 80 673 85 673 l 190 673 q 195 673 195 668 l 156 167 q 155 162 151 162 z m 137 95 q 159 95 176 78 q 192 62 192 40 q 192 19 175 2 q 159 -14 137 -14 q 115 -14 99 2 q 83 19 83 40 q 83 62 99 79 q 115 95 137 95 z"},"/":{"x_min":0,"x_max":310,"ha":310,"o":"m 306 693 q 311 691 309 686 l 39 -59 q 38 -64 32 -62 l -5 -50 q -10 -48 -8 -43 l 262 702 q 264 707 269 705 z"},"[":{"x_min":0,"x_max":329,"ha":329,"o":"m 90 700 q 90 706 96 706 l 262 706 q 268 706 268 700 l 268 667 q 268 661 263 661 l 144 661 q 139 661 139 655 l 139 -144 q 139 -149 144 -149 l 263 -149 q 269 -149 268 -155 l 268 -188 q 269 -194 262 -194 l 96 -194 q 90 -194 90 -188 z"},"6":{"x_min":0,"x_max":500,"ha":500,"o":"m 141 337 q 129 272 129 232 q 129 191 143 146 q 167 70 222 44 q 242 34 266 34 q 324 34 354 83 q 379 122 379 190 q 379 269 347 312 q 311 360 235 360 q 216 360 184 354 q 161 349 141 337 z m 149 388 q 211 421 270 421 q 365 421 423 363 q 481 305 481 213 q 481 115 420 52 q 356 -14 256 -14 q 148 -14 87 64 q 30 136 30 241 q 30 423 149 558 q 251 674 418 691 q 424 691 424 687 l 430 655 q 430 650 423 649 q 321 630 260 580 q 234 560 216 533 q 173 472 149 388 z"},"r":{"x_min":0,"x_max":383,"ha":383,"o":"m 314 448 q 329 448 352 439 q 374 430 385 419 q 386 418 387 415 q 388 412 386 410 l 337 340 q 333 335 332 335 q 330 335 329 336 q 307 358 281 358 q 248 358 223 329 l 194 295 q 190 291 190 284 l 190 47 q 190 42 195 42 l 280 35 q 285 35 285 30 l 285 5 q 285 0 280 0 l 34 0 q 29 0 29 5 l 29 30 q 29 35 34 35 l 104 42 q 109 42 109 47 l 109 377 q 109 382 104 382 l 32 390 q 27 390 27 395 l 27 418 q 27 423 31 423 l 151 443 q 156 444 157 444 l 185 444 q 190 444 190 439 l 190 346 l 243 408 q 277 448 314 448 z"},"2":{"x_min":0,"x_max":500,"ha":500,"o":"m 451 81 q 455 81 455 77 l 455 4 q 455 0 451 0 l 41 0 q 40 0 40 0 q 39 1 38 2 l 23 27 q 22 28 22 30 q 22 32 24 33 q 167 156 256 280 q 284 319 306 378 q 329 437 329 490 q 329 551 297 592 q 263 637 205 637 q 163 637 127 619 q 123 618 121 610 l 105 509 q 105 506 101 506 l 60 506 q 56 506 56 510 l 56 643 q 56 647 60 650 q 88 667 144 679 q 185 688 234 688 q 320 688 374 646 q 434 599 434 523 q 434 464 404 393 q 379 336 340 283 q 276 198 147 81 z"},"{":{"x_min":0,"x_max":323,"ha":323,"o":"m 40 279 q 40 284 45 284 q 69 287 81 293 q 112 314 112 365 q 112 396 94 459 q 76 521 76 557 q 76 624 115 659 q 146 687 199 699 q 231 706 283 706 q 288 706 288 700 l 288 673 q 288 668 283 668 q 227 665 200 649 q 173 634 163 597 q 157 577 157 549 q 157 532 170 413 q 173 391 173 375 q 173 339 150 305 q 133 280 110 268 l 110 264 q 135 249 150 227 q 173 193 173 147 q 173 124 165 59 q 157 -6 157 -37 q 157 -90 178 -117 q 196 -141 226 -147 q 229 -148 283 -156 q 288 -156 288 -161 l 288 -188 q 288 -194 283 -194 q 164 -194 115 -146 q 76 -110 76 -45 q 76 -13 87 33 q 97 71 106 110 q 112 135 112 157 q 112 220 81 239 q 70 246 45 248 q 40 248 40 253 z"},"9":{"x_min":0,"x_max":500,"ha":500,"o":"m 358 337 l 366 393 q 369 420 369 448 q 369 497 351 543 q 331 593 295 621 q 271 640 237 640 q 181 640 152 591 q 128 550 128 484 q 128 406 160 362 q 195 314 267 314 q 307 314 340 328 q 350 332 358 337 z m 285 141 q 299 161 319 202 q 336 236 350 285 q 295 253 233 253 q 140 253 83 311 q 26 369 26 461 q 26 531 60 587 q 94 644 156 670 q 197 688 247 688 q 352 688 413 611 q 468 540 468 433 q 468 253 352 116 q 256 2 88 -16 q 82 -16 82 -12 l 77 20 q 77 22 84 26 q 187 48 242 95 q 268 116 285 141 z"}," ":{"x_min":0,"x_max":250,"ha":250,"o":""},"I":{"x_min":0,"x_max":353,"ha":353,"o":"m 311 673 q 316 673 316 668 l 316 642 q 316 637 311 637 l 226 629 q 221 629 221 624 l 221 49 q 221 44 226 44 l 311 36 q 316 36 316 31 l 316 5 q 316 0 311 0 l 42 0 q 37 0 37 5 l 37 31 q 37 36 42 36 l 127 44 q 132 44 132 49 l 132 624 q 132 629 127 629 l 42 637 q 37 637 37 642 l 37 668 q 37 673 42 673 z"},"H":{"x_min":0,"x_max":762,"ha":762,"o":"m 37 668 q 37 673 42 673 l 304 673 q 309 673 309 668 l 309 642 q 309 637 304 637 l 224 629 q 219 629 219 624 l 219 382 q 219 379 221 379 l 542 379 q 543 380 543 382 l 543 624 q 543 629 538 629 l 458 637 q 453 637 453 642 l 453 668 q 453 673 458 673 l 720 673 q 725 673 725 668 l 725 642 q 725 637 720 637 l 635 629 q 630 629 630 624 l 630 49 q 630 44 635 44 l 720 36 q 725 36 725 31 l 725 5 q 725 0 720 0 l 458 0 q 453 0 453 5 l 453 31 q 453 36 458 36 l 538 44 q 543 44 543 49 l 543 328 q 543 333 538 333 l 224 333 q 219 333 219 328 l 219 49 q 219 44 224 44 l 304 36 q 309 36 309 31 l 309 5 q 309 0 304 0 l 42 0 q 37 0 37 5 l 37 31 q 37 36 42 36 l 127 44 q 132 44 132 49 l 132 624 q 132 629 127 629 l 42 637 q 37 637 37 642 z"},"4":{"x_min":0,"x_max":500,"ha":500,"o":"m 299 178 q 299 184 293 184 l 31 184 q 29 184 29 185 q 29 185 28 186 l 20 206 q 19 209 20 211 l 347 681 q 349 683 350 683 l 380 679 q 384 679 384 675 l 384 262 q 384 256 390 256 l 479 256 q 483 256 483 252 l 483 188 q 483 184 479 184 l 390 184 q 384 184 384 178 l 384 48 q 384 42 390 42 l 456 35 q 460 35 460 31 l 460 4 q 460 0 456 0 l 221 0 q 217 0 217 4 l 217 31 q 217 35 221 35 l 293 42 q 299 42 299 48 z m 106 256 l 293 256 q 299 256 299 262 l 299 541 z"},"~":{"x_min":0,"x_max":500,"ha":500,"o":"m 27 603 q 24 607 29 610 q 101 677 169 677 q 201 677 255 646 q 309 616 337 616 q 387 616 446 673 q 450 676 453 671 l 473 641 q 476 637 471 634 q 396 567 331 567 q 301 567 245 597 q 189 628 163 628 q 113 628 54 571 q 50 566 47 573 z"},"D":{"x_min":0,"x_max":724,"ha":724,"o":"m 219 51 q 219 46 224 46 l 295 46 q 446 46 514 99 q 591 160 591 306 q 591 627 311 627 l 224 627 q 219 627 219 622 z m 132 620 q 132 625 127 625 l 42 633 q 37 633 37 638 l 37 668 q 37 673 42 673 l 311 673 q 484 673 581 594 q 686 509 686 340 q 686 0 296 0 l 42 0 q 37 0 37 5 l 37 35 q 37 40 42 40 l 127 48 q 132 48 132 53 z"},"^":{"x_min":0,"x_max":500,"ha":500,"o":"m 266 688 q 269 688 270 685 l 446 308 q 447 307 447 306 q 447 301 442 301 l 398 301 q 396 301 394 304 l 250 613 l 106 304 q 104 301 102 301 l 58 301 q 53 301 53 306 q 53 307 54 308 l 230 685 q 231 688 234 688 z"},"0":{"x_min":0,"x_max":500,"ha":500,"o":"m 256 30 q 318 30 347 108 q 377 186 377 329 q 377 472 342 558 q 307 643 244 643 q 182 643 153 565 q 123 487 123 344 q 123 201 158 116 q 193 30 256 30 z m 259 688 q 370 688 421 600 q 472 511 472 347 q 472 178 414 84 q 353 -15 241 -15 q 130 -15 78 74 q 28 159 28 326 q 28 495 86 589 q 147 688 259 688 z"},"F":{"x_min":0,"x_max":535,"ha":535,"o":"m 510 673 q 515 673 515 668 l 515 511 q 515 506 510 506 l 473 506 q 468 506 468 510 l 448 623 q 448 627 443 627 l 224 627 q 219 627 219 622 l 219 360 q 219 356 224 356 l 356 356 q 361 356 361 360 l 371 441 q 371 445 376 445 l 403 445 q 408 445 408 440 l 408 227 q 408 222 403 222 l 376 222 q 371 222 371 226 l 361 308 q 361 312 356 312 l 224 312 q 219 312 219 308 l 219 49 q 219 44 224 44 l 309 36 q 314 36 314 31 l 314 5 q 314 0 309 0 l 42 0 q 37 0 37 5 l 37 31 q 37 36 42 36 l 127 44 q 132 44 132 49 l 132 626 q 131 629 129 629 l 127 629 l 42 637 q 37 637 37 642 l 37 668 q 37 673 41 673 z"},"`":{"x_min":0,"x_max":500,"ha":500,"o":"m 283 497 q 286 490 278 490 l 251 490 q 249 491 247 492 l 117 665 q 117 666 117 667 q 117 673 121 673 l 203 673 q 208 673 211 667 z"},"k":{"x_min":0,"x_max":530,"ha":530,"o":"m 106 639 q 106 644 101 644 l 23 652 q 18 652 18 657 l 18 680 q 18 685 22 685 l 148 705 q 151 706 153 706 l 182 706 q 187 706 187 701 l 187 256 q 187 253 189 252 q 191 251 194 254 l 341 389 q 342 391 341 393 q 341 395 338 395 l 287 399 q 282 399 282 404 l 282 429 q 282 434 287 434 l 475 434 q 480 434 480 429 l 480 404 q 480 399 475 399 l 408 393 q 407 393 405 391 l 273 269 q 271 268 271 266 q 271 264 272 262 l 462 43 q 463 41 465 41 l 523 35 q 528 35 528 30 l 528 5 q 528 0 523 0 l 312 0 q 307 0 307 5 l 307 30 q 307 35 312 35 l 352 38 q 355 38 355 40 q 355 42 354 44 l 196 226 q 194 228 190 227 q 187 225 187 222 l 187 47 q 187 42 192 42 l 244 35 q 249 35 249 30 l 249 5 q 249 0 244 0 l 33 0 q 28 0 28 5 l 28 30 q 28 35 33 35 l 101 42 q 106 42 106 47 z"},"u":{"x_min":0,"x_max":541,"ha":541,"o":"m 363 47 q 292 -14 213 -14 q 156 -14 120 19 q 82 53 82 110 l 82 377 q 82 382 77 382 l 5 390 q 0 390 0 395 l 0 418 q 0 423 4 423 l 124 443 q 125 443 129 444 l 158 444 q 163 444 163 439 l 163 145 q 163 52 257 52 q 305 52 356 83 q 361 86 361 89 l 361 377 q 361 382 356 382 l 284 390 q 279 390 279 395 l 279 418 q 279 423 283 423 l 403 443 q 405 443 409 444 l 437 444 q 442 444 442 439 l 442 48 q 442 43 447 43 l 519 35 q 524 35 524 30 l 524 7 q 524 2 520 2 l 371 -8 q 367 -8 366 -3 z"},"]":{"x_min":0,"x_max":329,"ha":329,"o":"m 239 -188 q 239 -194 233 -194 l 66 -194 q 61 -194 61 -188 l 61 -155 q 61 -149 65 -149 l 185 -149 q 190 -149 190 -143 l 190 656 q 190 661 185 661 l 65 661 q 60 661 61 667 l 61 700 q 60 706 66 706 l 233 706 q 239 706 239 700 z"},"U":{"x_min":0,"x_max":718,"ha":718,"o":"m 109 624 q 109 629 104 629 l 20 637 q 15 637 15 642 l 15 668 q 15 673 20 673 l 291 673 q 296 673 296 668 l 296 642 q 296 637 291 637 l 201 629 q 196 629 196 624 l 196 263 q 196 188 204 148 q 210 117 230 94 q 282 34 381 34 q 487 34 539 118 q 556 145 561 201 q 564 231 564 274 l 564 624 q 564 629 559 629 l 474 637 q 469 637 469 642 l 469 668 q 469 673 474 673 l 706 673 q 711 673 711 668 l 711 642 q 711 637 706 637 l 624 629 q 619 629 619 624 l 619 278 q 619 114 552 49 q 486 -14 367 -14 q 233 -14 165 53 q 135 83 124 115 q 109 159 109 227 z"},"o":{"x_min":0,"x_max":508,"ha":508,"o":"m 244 405 q 179 405 148 350 q 123 307 123 237 q 123 97 198 47 q 226 29 264 29 q 385 29 385 198 q 385 282 356 335 q 320 405 244 405 z m 257 448 q 362 448 420 387 q 476 327 476 220 q 476 118 416 53 q 353 -14 252 -14 q 147 -14 89 48 q 32 109 32 214 q 32 317 92 382 q 154 448 257 448 z"},"N":{"x_min":0,"x_max":726,"ha":726,"o":"m 20 668 q 20 673 25 673 l 201 673 q 204 672 205 671 l 576 180 l 576 620 q 576 625 572 625 l 498 633 q 493 633 493 638 l 493 668 q 493 673 498 673 l 706 673 q 711 673 711 668 l 711 638 q 711 633 706 633 l 631 625 q 626 625 626 620 l 626 -3 q 626 -8 620 -8 l 601 -8 q 599 -7 596 -5 l 165 566 l 165 53 q 165 48 169 48 l 242 40 q 247 40 247 35 l 247 5 q 247 0 242 0 l 34 0 q 29 0 29 5 l 29 35 q 29 40 34 40 l 110 48 q 115 48 115 53 l 115 620 q 115 625 110 625 l 25 633 q 20 633 20 638 z"},"+":{"x_min":0,"x_max":500,"ha":500,"o":"m 30 248 q 30 253 35 253 l 225 253 l 225 455 q 225 460 230 460 l 270 460 q 275 460 275 455 l 275 253 l 465 253 q 470 253 470 248 l 470 212 q 470 207 465 207 l 275 207 l 275 5 q 275 0 270 0 l 230 0 q 225 0 225 5 l 225 207 l 35 207 q 30 207 30 212 z"},"G":{"x_min":0,"x_max":708,"ha":708,"o":"m 424 688 q 476 688 559 671 q 571 669 598 664 q 603 663 603 659 l 603 508 q 603 503 598 503 l 559 503 q 554 503 554 507 l 534 619 q 534 622 530 624 q 444 643 417 643 q 286 643 210 567 q 135 490 135 359 q 135 226 208 132 q 287 31 416 31 q 453 31 516 44 l 516 246 q 516 251 511 251 l 426 259 q 421 259 421 265 l 421 289 q 421 295 427 295 l 682 295 q 688 295 688 289 l 688 265 q 688 259 683 259 l 608 251 q 604 251 603 248 l 603 15 q 603 12 598 10 q 494 -14 403 -14 q 246 -14 143 82 q 38 179 38 335 q 38 440 90 522 q 143 604 238 648 q 324 688 424 688 z"},"q":{"x_min":0,"x_max":515,"ha":515,"o":"m 348 380 q 325 403 267 403 q 195 403 156 345 q 122 295 122 219 q 122 149 149 105 q 181 52 247 52 q 299 52 343 79 q 348 83 348 85 z m 348 42 q 283 -14 204 -14 q 125 -14 76 51 q 32 110 32 191 q 32 301 98 373 q 167 448 275 448 q 328 448 378 425 l 393 441 q 395 444 398 444 l 424 444 q 429 444 429 439 l 429 -198 q 429 -203 434 -203 l 501 -210 q 506 -210 506 -215 l 506 -240 q 506 -245 501 -245 l 273 -245 q 268 -245 268 -240 l 268 -215 q 268 -210 273 -210 l 343 -203 q 348 -203 348 -198 z"},"d":{"x_min":0,"x_max":528,"ha":528,"o":"m 348 381 q 337 392 316 396 q 288 403 267 403 q 195 403 156 345 q 122 295 122 219 q 122 149 149 105 q 181 52 247 52 q 299 52 343 79 q 348 83 348 85 z m 390 705 q 393 706 395 706 l 424 706 q 429 706 429 701 l 429 48 q 429 43 434 43 l 506 35 q 511 35 511 30 l 511 7 q 511 2 507 2 l 358 -8 q 354 -8 353 -3 l 350 44 q 278 -14 204 -14 q 125 -14 76 51 q 32 110 32 191 q 32 300 98 373 q 167 448 275 448 q 305 448 348 439 l 348 639 q 348 644 343 644 l 265 652 q 260 652 260 657 l 260 680 q 260 685 264 685 z"},"1":{"x_min":0,"x_max":500,"ha":500,"o":"m 298 679 q 302 679 302 675 l 302 48 q 302 42 308 42 l 393 35 q 397 35 397 31 l 397 4 q 397 0 393 0 l 121 0 q 117 0 117 4 l 117 31 q 117 35 121 35 l 211 42 q 213 42 215 43 q 217 45 217 48 l 217 584 q 217 590 212 590 l 106 576 q 104 577 102 580 l 95 606 q 95 607 96 608 l 98 610 l 266 678 q 270 679 271 679 z"},"5":{"x_min":0,"x_max":500,"ha":500,"o":"m 116 441 q 158 450 206 450 q 309 450 375 391 q 442 332 442 235 q 442 127 365 57 q 288 -14 174 -14 q 139 -14 95 -2 q 51 9 25 32 q 22 35 21 37 q 21 38 22 39 l 42 68 q 43 69 44 69 q 46 69 49 68 q 84 45 139 37 q 155 34 170 34 q 245 34 294 82 q 343 130 343 204 q 343 275 296 320 q 249 364 173 364 q 126 364 68 348 q 60 346 60 352 l 60 669 q 60 673 65 673 l 394 673 q 398 673 398 669 l 398 592 q 398 588 394 588 l 121 588 q 114 588 114 581 l 114 439 z"}}}
